<svg xmlns="http://www.w3.org/2000/svg" xmlns:xlink="http://www.w3.org/1999/xlink" width="1000" zoomAndPan="magnify" viewBox="0 0 750 749.999995" height="1000" preserveAspectRatio="xMidYMid meet" version="1.0"><defs><g/><clipPath id="6724c6b7a6"><path d="M 376 23 L 648 23 L 648 306 L 376 306 Z M 376 23 " clip-rule="nonzero"/></clipPath><clipPath id="c93884b881"><path d="M 413.691406 23.003906 L 647.945312 58.335938 L 610.699219 305.277344 L 376.445312 269.945312 Z M 413.691406 23.003906 " clip-rule="nonzero"/></clipPath><clipPath id="6867676bb5"><path d="M 112 52 L 255 52 L 255 231 L 112 231 Z M 112 52 " clip-rule="nonzero"/></clipPath><clipPath id="b1dc4970e2"><path d="M 37.691406 0.00390625 L 271.945312 35.335938 L 234.699219 282.277344 L 0.445312 246.945312 Z M 37.691406 0.00390625 " clip-rule="nonzero"/></clipPath><clipPath id="b05c9d7bb4"><path d="M 272.046875 35.347656 L 37.792969 0.015625 L 0.546875 246.960938 L 234.800781 282.292969 Z M 272.046875 35.347656 " clip-rule="nonzero"/></clipPath><clipPath id="9d2fc2fe33"><path d="M 37 153 L 120 153 L 120 258 L 37 258 Z M 37 153 " clip-rule="nonzero"/></clipPath><clipPath id="d1559e42dc"><path d="M 37.691406 0.00390625 L 271.945312 35.335938 L 234.699219 282.277344 L 0.445312 246.945312 Z M 37.691406 0.00390625 " clip-rule="nonzero"/></clipPath><clipPath id="4ff3ad9c80"><path d="M 272.046875 35.347656 L 37.792969 0.015625 L 0.546875 246.960938 L 234.800781 282.292969 Z M 272.046875 35.347656 " clip-rule="nonzero"/></clipPath><clipPath id="75bc997bd7"><path d="M 31 4 L 102 4 L 102 93 L 31 93 Z M 31 4 " clip-rule="nonzero"/></clipPath><clipPath id="c57814ea07"><path d="M 37.691406 0.00390625 L 271.945312 35.335938 L 234.699219 282.277344 L 0.445312 246.945312 Z M 37.691406 0.00390625 " clip-rule="nonzero"/></clipPath><clipPath id="5525f94de9"><path d="M 272.046875 35.347656 L 37.792969 0.015625 L 0.546875 246.960938 L 234.800781 282.292969 Z M 272.046875 35.347656 " clip-rule="nonzero"/></clipPath><clipPath id="beabec1589"><rect x="0" width="272" y="0" height="283"/></clipPath><clipPath id="bae27d0d63"><rect x="0" width="649" y="0" height="317"/></clipPath></defs><g transform="matrix(1, 0, 0, 1, 53, 220)"><g clip-path="url(#bae27d0d63)"><g fill="#264fa9" fill-opacity="1"><g transform="translate(20.205316, 116.271237)"><g><path d="M 34.730469 -85.265625 L 42.210938 -58.71875 C 30.480469 -63.511719 23.859375 -62.683594 17.320312 -60.839844 C -1.820312 -55.445312 -7.953125 -40.011719 -3.890625 -25.585938 C -0.09375 -12.121094 13.417969 -2.121094 31.019531 -7.082031 C 40.445312 -9.738281 45.535156 -13.042969 52.601562 -23.339844 L 55.785156 -15.722656 L 62.804688 -17.699219 C 61.703125 -20.503906 59.652344 -26.675781 59.625 -26.773438 L 42.523438 -87.460938 Z M 3.957031 -27.589844 C 0.1875 -40.957031 7.074219 -50.789062 19.574219 -54.3125 C 28.039062 -56.699219 35.75 -55.859375 44.488281 -50.640625 L 49.992188 -31.117188 C 46.121094 -23.484375 38.671875 -16.402344 31.070312 -14.261719 C 18.472656 -10.707031 7.101562 -16.433594 3.957031 -27.589844 Z M 3.957031 -27.589844 "/></g></g></g><g fill="#264fa9" fill-opacity="1"><g transform="translate(83.969342, 98.760229)"><g><path d="M -10.082031 -72.238281 L -7.984375 -63.183594 L 1.070312 -65.28125 L -1.03125 -74.335938 Z M -4.796875 -52.535156 L 7.007812 -1.625 L 14.894531 -3.453125 L 3.089844 -54.363281 Z M -4.796875 -52.535156 "/></g></g></g><g fill="#264fa9" fill-opacity="1"><g transform="translate(99.841471, 94.552396)"><g><path d="M 18.058594 -58.238281 C 4.214844 -55.617188 -3.738281 -48.210938 -1.859375 -38.292969 C 0.277344 -27.003906 12.628906 -27.308594 25.554688 -28.332031 C 36.164062 -29.222656 44.140625 -29.003906 45.273438 -23.015625 C 46.296875 -17.613281 40.449219 -13.050781 30.824219 -11.226562 C 21.105469 -9.386719 12.660156 -11.550781 5.511719 -17.621094 L 0.644531 -11.105469 C 9.175781 -4.179688 18.855469 -1.941406 31.421875 -4.324219 C 47.03125 -7.277344 55.046875 -14.898438 53.113281 -25.109375 C 50.550781 -38.660156 34.628906 -36.253906 19.941406 -35.40625 C 12.902344 -34.988281 6.890625 -35.578125 6 -40.292969 C 4.976562 -45.691406 9.621094 -49.621094 19.144531 -51.425781 C 27.984375 -53.097656 35.609375 -51.492188 41.808594 -46.15625 L 46.277344 -52.085938 C 38.980469 -58.945312 29.546875 -60.414062 18.058594 -58.238281 Z M 18.058594 -58.238281 "/></g></g></g><g fill="#264fa9" fill-opacity="1"><g transform="translate(153.49147, 84.087859)"><g><path d="M 1.089844 -52.785156 L 5.328125 -18.167969 C 6.769531 -6.367188 15.171875 -0.246094 29.058594 -1.945312 C 36.792969 -2.894531 43.570312 -6.742188 49.761719 -13.742188 L 50.683594 -6.203125 L 58.71875 -7.1875 L 52.371094 -59.0625 L 44.335938 -58.078125 L 48.765625 -21.875 C 43.59375 -14.796875 36.652344 -9.820312 29.210938 -8.910156 C 19.292969 -7.695312 14.1875 -12.40625 13.226562 -20.242188 L 9.125 -53.769531 Z M 1.089844 -52.785156 "/></g></g></g><g fill="#264fa9" fill-opacity="1"><g transform="translate(213.498001, 76.882564)"><g><path d="M 33.855469 -56.207031 C 26.972656 -55.753906 20.761719 -52.742188 12.835938 -42.304688 L 12.121094 -53.171875 L 4.046875 -52.640625 L 7.476562 -0.492188 L 15.554688 -1.023438 L 13.5 -32.234375 C 15.625 -37.980469 23.199219 -47.691406 32.671875 -48.316406 C 34.566406 -48.441406 36.574219 -48.375 39.097656 -48.039062 L 38.566406 -56.117188 C 37.050781 -56.316406 35.550781 -56.316406 33.855469 -56.207031 Z M 33.855469 -56.207031 "/></g></g></g><g fill="#264fa9" fill-opacity="1"><g transform="translate(251.555183, 73.890266)"><g><path d="M 6.988281 -52.332031 L 7.328125 -17.457031 C 7.441406 -5.566406 15.105469 1.453125 29.09375 1.316406 C 36.886719 1.242188 44.050781 -1.824219 50.988281 -8.085938 L 51.058594 -0.492188 L 59.152344 -0.570312 L 58.648438 -52.832031 L 50.554688 -52.753906 L 50.90625 -16.28125 C 44.972656 -9.828125 37.519531 -5.660156 30.027344 -5.585938 C 20.035156 -5.488281 15.484375 -10.742188 15.410156 -18.636719 L 15.082031 -52.410156 Z M 6.988281 -52.332031 "/></g></g></g><g fill="#264fa9" fill-opacity="1"><g transform="translate(311.739072, 73.087765)"><g><path d="M 11.75 -72.082031 L 7.480469 0.441406 L 15.5625 0.917969 L 17.707031 -35.496094 C 24.589844 -41.894531 32.089844 -45.15625 39.269531 -44.734375 C 49.246094 -44.148438 53.429688 -38.695312 52.960938 -30.714844 L 50.972656 3 L 59.054688 3.476562 L 61.105469 -31.335938 C 61.808594 -43.308594 54.539062 -50.742188 40.671875 -51.558594 C 32.890625 -52.019531 25.632812 -49.441406 18.1875 -43.675781 L 19.832031 -71.605469 Z M 11.75 -72.082031 "/></g></g></g><g fill="#264fa9" fill-opacity="1"><g transform="translate(187.696994, 164.094572)"><g><path d="M -3.609375 -74.613281 L 6.085938 -10.957031 L 6.972656 -1.0625 L 13.339844 -2.03125 L 14.097656 -10.625 C 24.925781 -4.003906 31.066406 -3.078125 40.5625 -4.523438 C 59.15625 -7.355469 67.984375 -22.035156 65.765625 -36.585938 C 63.367188 -52.347656 50.617188 -63.433594 31.113281 -60.464844 C 23.03125 -59.234375 17.484375 -56.941406 8.824219 -47.972656 L 4.578125 -75.859375 Z M 10.117188 -39.484375 C 16.152344 -48.054688 22.980469 -52.09375 31.46875 -53.386719 C 45.109375 -55.460938 55.519531 -48.878906 57.613281 -35.136719 C 59.335938 -23.820312 51.527344 -13.328125 37.886719 -11.25 C 30.105469 -10.0625 20.605469 -13.375 13.238281 -18.972656 Z M 10.117188 -39.484375 "/></g></g></g><g fill="#264fa9" fill-opacity="1"><g transform="translate(253.310886, 155.084684)"><g><path d="M 3.445312 -74.523438 L 3.855469 -65.027344 L 13.351562 -65.433594 L 12.941406 -74.933594 Z M 5.054688 -53.722656 L 7.351562 -0.316406 L 15.625 -0.671875 L 13.328125 -54.078125 Z M 5.054688 -53.722656 "/></g></g></g><g fill="#264fa9" fill-opacity="1"><g transform="translate(268.733601, 152.903389)"><g><path d="M 11.972656 -73.734375 L 7.652344 0.445312 L 15.917969 0.925781 L 16.933594 -16.523438 L 33.03125 -27.460938 L 55.507812 3.230469 L 66.019531 3.84375 L 39.628906 -31.785156 L 65.859375 -49.710938 L 53.105469 -50.453125 L 17.488281 -26.011719 L 20.238281 -73.253906 Z M 11.972656 -73.734375 "/></g></g></g><g fill="#264fa9" fill-opacity="1"><g transform="translate(329.352105, 157.207643)"><g><path d="M 18.34375 -72.3125 L 16.835938 -62.925781 L 26.222656 -61.417969 L 27.730469 -70.804688 Z M 15.746094 -51.613281 L 7.265625 1.167969 L 15.441406 2.480469 L 23.917969 -50.300781 Z M 15.746094 -51.613281 "/></g></g></g><g fill="#264fa9" fill-opacity="1"><g transform="translate(344.898785, 158.168341)"><g><path d="M 51.320312 -43.339844 C 43.617188 -45.390625 35.816406 -44.296875 27.171875 -40.042969 L 29.171875 -47.546875 L 21.171875 -49.679688 L 7.40625 1.972656 L 15.40625 4.105469 L 25.011719 -31.945312 C 33.222656 -36.949219 41.40625 -38.683594 48.515625 -36.789062 C 58.394531 -34.15625 61.46875 -27.835938 59.363281 -19.933594 L 50.46875 13.449219 L 58.46875 15.578125 L 67.652344 -18.890625 C 70.8125 -30.742188 65.046875 -39.679688 51.320312 -43.339844 Z M 51.320312 -43.339844 "/></g></g></g><g fill="#264fa9" fill-opacity="1"><g transform="translate(29.299751, 273.299746)"><g><path d="M -3.167969 -114.914062 L 11.238281 -1.425781 L 30.285156 -3.84375 L 28.917969 -14.617188 C 38.632812 -6.808594 50.308594 -3.53125 63.890625 -5.257812 C 88.554688 -8.386719 105.808594 -28.660156 102.320312 -56.132812 C 99.050781 -81.890625 78.917969 -98.050781 51.753906 -94.605469 C 42.699219 -93.453125 33.179688 -90.976562 21.0625 -78.96875 L 16.1875 -117.371094 Z M 23.164062 -62.421875 C 31.5 -71.730469 39.648438 -76.253906 49.484375 -77.503906 C 66.34375 -79.644531 80.53125 -70.339844 82.730469 -53.011719 C 84.910156 -35.84375 73.964844 -23.347656 57.417969 -21.25 C 47.898438 -20.039062 39.558594 -21.996094 27.304688 -29.796875 Z M 23.164062 -62.421875 "/></g></g></g><g fill="#264fa9" fill-opacity="1"><g transform="translate(132.545933, 260.829355)"><g><path d="M 3.355469 -114.988281 L 12.082031 -0.925781 L 31.535156 -2.414062 L 22.808594 -116.476562 Z M 3.355469 -114.988281 "/></g></g></g><g fill="#264fa9" fill-opacity="1"><g transform="translate(166.646616, 257.281398)"><g><path d="M 49.796875 -88.84375 C 19.753906 -87.953125 3.003906 -68.726562 3.78125 -42.460938 C 4.636719 -13.519531 24.304688 2.113281 52.460938 1.28125 C 80.773438 0.445312 99.324219 -16.316406 98.46875 -45.257812 C 97.679688 -71.996094 79.523438 -89.722656 49.796875 -88.84375 Z M 23.589844 -43.359375 C 23.046875 -61.761719 34.089844 -71.691406 50.132812 -72.164062 C 66.648438 -72.652344 78.105469 -63.074219 78.640625 -44.988281 C 79.164062 -27.371094 69.269531 -15.902344 51.96875 -15.390625 C 34.664062 -14.878906 24.113281 -25.742188 23.589844 -43.359375 Z M 23.589844 -43.359375 "/></g></g></g><g fill="#264fa9" fill-opacity="1"><g transform="translate(261.181153, 254.13448)"><g><path d="M 105.179688 -84.726562 L 102.507812 -84.832031 C 95.746094 -85.09375 90.125 -82.320312 83.914062 -76.421875 C 75.792969 -82.25 66.914062 -84.796875 54.964844 -85.261719 C 26.347656 -86.375 10.988281 -76.105469 10.21875 -56.292969 C 9.804688 -45.601562 13.886719 -37.253906 23.273438 -31.535156 L 23.261719 -31.222656 C 14.871094 -30.128906 8.144531 -23.148438 7.863281 -15.914062 C 7.5625 -8.210938 11.945312 -3.472656 20.089844 -2.367188 L 20.078125 -2.054688 C 5.84375 -0.402344 2.835938 4.046875 2.589844 10.335938 C 2.125 22.285156 17.273438 29.648438 45.890625 30.757812 C 78.910156 32.042969 101.109375 24.085938 101.773438 6.949219 C 102.316406 -7.046875 89.632812 -12.894531 70.605469 -13.632812 L 44.03125 -14.667969 C 32.871094 -15.101562 27.082031 -16.113281 27.242188 -20.199219 C 27.332031 -22.558594 29.46875 -24.839844 32.851562 -26.753906 C 36.726562 -25.1875 42.652344 -23.695312 50.511719 -23.390625 C 77.242188 -22.351562 93.714844 -32.890625 94.492188 -52.859375 C 94.699219 -58.207031 93.46875 -62.980469 91.105469 -67.007812 C 93.507812 -68.015625 95.097656 -68.425781 97.925781 -68.316406 C 99.65625 -68.25 101.847656 -67.851562 104.484375 -66.804688 Z M 29.390625 -55.234375 C 29.816406 -66.242188 39.464844 -71.378906 52.515625 -70.871094 C 66.980469 -70.308594 75.707031 -63.828125 75.308594 -53.605469 C 74.898438 -43.070312 64.597656 -37.332031 51.234375 -37.851562 C 36.925781 -38.40625 28.972656 -44.542969 29.390625 -55.234375 Z M 66.625 3.691406 C 78.574219 4.15625 80.425781 5.171875 80.265625 9.261719 C 80.042969 15.078125 69.546875 17.664062 48.164062 16.832031 C 28.035156 16.050781 23.882812 13.527344 24.089844 8.179688 C 24.242188 4.25 28.890625 2.226562 35.808594 2.492188 Z M 66.625 3.691406 "/></g></g></g><g clip-path="url(#6724c6b7a6)"><g clip-path="url(#c93884b881)"><g transform="matrix(1, 0, 0, 1, 376, 23)"><g clip-path="url(#beabec1589)"><g clip-path="url(#6867676bb5)"><g clip-path="url(#b1dc4970e2)"><g clip-path="url(#b05c9d7bb4)"><path fill="#264fa9" d="M 187.296875 55.425781 C 188.191406 53.273438 190.390625 51.980469 192.710938 52.246094 C 195.015625 52.511719 196.886719 54.285156 197.25 56.582031 C 199.769531 71.496094 202.414062 106.957031 212.160156 120.167969 C 219.488281 130.082031 231.316406 136.953125 245.8125 142.730469 C 248.320312 143.738281 255.042969 148.464844 254.585938 151.101562 C 254.128906 153.746094 246.5 155.917969 243.8125 156.042969 C 221.613281 157 202.71875 160.648438 194.902344 172.296875 C 188.832031 181.351562 182.648438 194.503906 176.425781 217.230469 C 175.476562 220.695312 171.019531 230.644531 167.464844 230.167969 C 163.886719 229.6875 162.292969 218.929688 162.265625 215.335938 C 162.28125 187.796875 159.679688 169.367188 153.222656 159.871094 C 145.132812 147.96875 133.148438 140.148438 120.101562 134.835938 C 117.886719 133.953125 112.65625 131.066406 112.871094 128.707031 C 113.085938 126.332031 118.359375 124.316406 120.679688 123.851562 C 140.894531 119.703125 163.371094 110.050781 172.550781 93.601562 C 176.984375 85.683594 184.734375 60.945312 187.296875 55.425781 Z M 187.296875 55.425781 " fill-opacity="1" fill-rule="evenodd"/></g></g></g><g clip-path="url(#9d2fc2fe33)"><g clip-path="url(#d1559e42dc)"><g clip-path="url(#4ff3ad9c80)"><path fill="#264fa9" d="M 80.5625 155.574219 C 81.082031 154.328125 82.351562 153.558594 83.714844 153.726562 C 85.054688 153.890625 86.144531 154.910156 86.347656 156.246094 C 87.8125 164.921875 89.347656 185.558594 95.03125 193.246094 C 99.296875 199.023438 106.175781 203.023438 114.621094 206.371094 C 116.082031 206.960938 119.988281 209.707031 119.71875 211.242188 C 119.445312 212.789062 115.015625 214.039062 113.449219 214.128906 C 100.523438 214.683594 89.546875 216.804688 84.992188 223.574219 C 81.472656 228.832031 77.863281 236.503906 74.242188 249.722656 C 73.691406 251.738281 71.109375 257.523438 69.027344 257.25 C 66.949219 256.972656 66.019531 250.722656 66.011719 248.621094 C 66.023438 232.605469 64.5 221.871094 60.75 216.359375 C 56.046875 209.433594 49.070312 204.894531 41.484375 201.796875 C 40.199219 201.273438 37.148438 199.589844 37.269531 198.222656 C 37.394531 196.855469 40.46875 195.667969 41.8125 195.398438 C 53.574219 192.972656 66.652344 187.359375 71.988281 177.789062 C 74.5625 173.199219 79.082031 158.800781 80.5625 155.574219 Z M 80.5625 155.574219 " fill-opacity="1" fill-rule="evenodd"/></g></g></g><g clip-path="url(#75bc997bd7)"><g clip-path="url(#c57814ea07)"><g clip-path="url(#5525f94de9)"><path fill="#264fa9" d="M 68 6.570312 C 68.445312 5.511719 69.523438 4.863281 70.667969 4.992188 C 71.808594 5.121094 72.71875 5.992188 72.917969 7.125 C 74.164062 14.507812 75.460938 32.003906 80.285156 38.542969 C 83.90625 43.453125 89.753906 46.839844 96.910156 49.695312 C 98.140625 50.1875 101.453125 52.523438 101.238281 53.832031 C 101.019531 55.140625 97.230469 56.203125 95.917969 56.269531 C 84.9375 56.734375 75.617188 58.542969 71.75 64.304688 C 68.753906 68.761719 65.695312 75.273438 62.628906 86.511719 C 62.144531 88.230469 59.957031 93.140625 58.199219 92.917969 C 56.445312 92.675781 55.652344 87.378906 55.640625 85.585938 C 55.652344 71.972656 54.359375 62.863281 51.175781 58.1875 C 47.164062 52.304688 41.25 48.433594 34.816406 45.808594 C 33.722656 45.359375 31.140625 43.949219 31.242188 42.78125 C 31.355469 41.613281 33.953125 40.601562 35.109375 40.386719 C 45.105469 38.328125 56.195312 33.582031 60.746094 25.4375 C 62.910156 21.535156 66.734375 9.292969 68 6.570312 Z M 68 6.570312 " fill-opacity="1" fill-rule="evenodd"/></g></g></g></g></g></g></g></g></g></svg>