<svg xmlns="http://www.w3.org/2000/svg" version="1.1" xmlns:xlink="http://www.w3.org/1999/xlink" width="1000" height="1000"><metadata><rdf:RDF xmlns:rdf="http://www.w3.org/1999/02/22-rdf-syntax-ns#" xmlns:dc="http://purl.org/dc/elements/1.1/"><rdf:Description><dc:creator>RealFaviconGenerator</dc:creator><dc:source>https://realfavicongenerator.net</dc:source></rdf:Description></rdf:RDF></metadata><g clip-path="url(#SvgjsClipPath1168)"><rect width="1000" height="1000" fill="#264fa9"></rect><g transform="matrix(1,0,0,1,0,0)"><svg xmlns="http://www.w3.org/2000/svg" version="1" xmlns:xlink="http://www.w3.org/1999/xlink" width="1000" zoomAndPan="magnify" viewBox="0 0 750 749.999995" height="1000" preserveAspectRatio="xMidYMid meet"><defs><g></g><clipPath id="65642b484e"><path d="M 347 21 L 597 21 L 597 282 L 347 282 Z M 347 21 " clip-rule="nonzero"></path></clipPath><clipPath id="3b8020281c"><path d="M 381.367188 21.546875 L 596.90625 54.058594 L 562.636719 281.273438 L 347.097656 248.765625 Z M 381.367188 21.546875 " clip-rule="nonzero"></path></clipPath><clipPath id="50d013ae72"><path d="M 103 48 L 234 48 L 234 213 L 103 213 Z M 103 48 " clip-rule="nonzero"></path></clipPath><clipPath id="93e6c0ea41"><path d="M 34.367188 0.546875 L 249.90625 33.058594 L 215.636719 260.273438 L 0.0976562 227.765625 Z M 34.367188 0.546875 " clip-rule="nonzero"></path></clipPath><clipPath id="bb82947434"><path d="M 250 33.070312 L 34.457031 0.5625 L 0.1875 227.777344 L 215.726562 260.289062 Z M 250 33.070312 " clip-rule="nonzero"></path></clipPath><clipPath id="d7fb0563c7"><path d="M 33 141 L 110 141 L 110 238 L 33 238 Z M 33 141 " clip-rule="nonzero"></path></clipPath><clipPath id="ad55d33a62"><path d="M 34.367188 0.546875 L 249.90625 33.058594 L 215.636719 260.273438 L 0.0976562 227.765625 Z M 34.367188 0.546875 " clip-rule="nonzero"></path></clipPath><clipPath id="56f76af447"><path d="M 250 33.070312 L 34.457031 0.5625 L 0.1875 227.777344 L 215.726562 260.289062 Z M 250 33.070312 " clip-rule="nonzero"></path></clipPath><clipPath id="a060a18bd9"><path d="M 28 5 L 93 5 L 93 87 L 28 87 Z M 28 5 " clip-rule="nonzero"></path></clipPath><clipPath id="17e9ed674a"><path d="M 34.367188 0.546875 L 249.90625 33.058594 L 215.636719 260.273438 L 0.0976562 227.765625 Z M 34.367188 0.546875 " clip-rule="nonzero"></path></clipPath><clipPath id="f7f71cf2dc"><path d="M 250 33.070312 L 34.457031 0.5625 L 0.1875 227.777344 L 215.726562 260.289062 Z M 250 33.070312 " clip-rule="nonzero"></path></clipPath><clipPath id="f04b1afeb5"><rect x="0" width="250" y="0" height="261"></rect></clipPath><clipPath id="bc078407ae"><rect x="0" width="598" y="0" height="292"></rect></clipPath><clipPath id="SvgjsClipPath1168"><rect width="1000" height="1000" x="0" y="0" rx="300" ry="300"></rect></clipPath></defs><rect x="-75" width="900" fill="#ffffff" y="-74.999999" height="899.999994" fill-opacity="1"></rect><rect x="-75" width="900" fill="#264fa9" y="-74.999999" height="899.999994" fill-opacity="1"></rect><g transform="matrix(1, 0, 0, 1, 78, 232)"><g clip-path="url(#bc078407ae)"><g fill="#ffffff" fill-opacity="1"><g transform="translate(19.315239, 107.365242)"><g><path d="M 31.957031 -78.453125 L 38.839844 -54.027344 C 28.046875 -58.4375 21.953125 -57.675781 15.9375 -55.980469 C -1.671875 -51.015625 -7.320312 -36.816406 -3.578125 -23.542969 C -0.0859375 -11.152344 12.347656 -1.953125 28.539062 -6.515625 C 37.214844 -8.960938 41.898438 -12 48.398438 -21.472656 L 51.328125 -14.464844 L 57.789062 -16.285156 C 56.773438 -18.867188 54.886719 -24.542969 54.863281 -24.632812 L 39.125 -80.472656 Z M 3.640625 -25.386719 C 0.171875 -37.6875 6.507812 -46.730469 18.011719 -49.972656 C 25.800781 -52.167969 32.894531 -51.398438 40.933594 -46.59375 L 46 -28.628906 C 42.4375 -21.609375 35.582031 -15.089844 28.589844 -13.121094 C 16.996094 -9.851562 6.535156 -15.121094 3.640625 -25.386719 Z M 3.640625 -25.386719 "></path></g></g></g><g fill="#ffffff" fill-opacity="1"><g transform="translate(77.985256, 91.253142)"><g><path d="M -9.277344 -66.464844 L -7.34375 -58.136719 L 0.984375 -60.066406 L -0.945312 -68.398438 Z M -4.414062 -48.339844 L 6.449219 -1.496094 L 13.703125 -3.175781 L 2.84375 -50.023438 Z M -4.414062 -48.339844 "></path></g></g></g><g fill="#ffffff" fill-opacity="1"><g transform="translate(92.58938, 87.381459)"><g><path d="M 16.617188 -53.585938 C 3.878906 -51.171875 -3.441406 -44.359375 -1.710938 -35.234375 C 0.253906 -24.847656 11.617188 -25.125 23.511719 -26.070312 C 33.277344 -26.886719 40.613281 -26.6875 41.65625 -21.175781 C 42.597656 -16.207031 37.214844 -12.007812 28.363281 -10.332031 C 19.417969 -8.636719 11.648438 -10.628906 5.070312 -16.214844 L 0.589844 -10.21875 C 8.441406 -3.84375 17.347656 -1.789062 28.910156 -3.976562 C 43.273438 -6.695312 50.648438 -13.707031 48.871094 -23.101562 C 46.511719 -35.570312 31.863281 -33.359375 18.347656 -32.578125 C 11.871094 -32.191406 6.339844 -32.738281 5.519531 -37.074219 C 4.578125 -42.042969 8.855469 -45.65625 17.617188 -47.316406 C 25.746094 -48.855469 32.765625 -47.378906 38.46875 -42.46875 L 42.582031 -47.925781 C 35.863281 -54.234375 27.1875 -55.585938 16.617188 -53.585938 Z M 16.617188 -53.585938 "></path></g></g></g><g fill="#ffffff" fill-opacity="1"><g transform="translate(141.953367, 77.75293)"><g><path d="M 1.003906 -48.570312 L 4.902344 -16.71875 C 6.230469 -5.855469 13.960938 -0.226562 26.734375 -1.789062 C 33.855469 -2.660156 40.089844 -6.203125 45.785156 -12.644531 L 46.636719 -5.707031 L 54.027344 -6.613281 L 48.1875 -54.34375 L 40.792969 -53.4375 L 44.871094 -20.128906 C 40.109375 -13.617188 33.722656 -9.035156 26.878906 -8.199219 C 17.75 -7.082031 13.054688 -11.417969 12.171875 -18.625 L 8.394531 -49.472656 Z M 1.003906 -48.570312 "></path></g></g></g><g fill="#ffffff" fill-opacity="1"><g transform="translate(197.166068, 71.123262)"><g><path d="M 31.148438 -51.714844 C 24.820312 -51.296875 19.105469 -48.527344 11.8125 -38.925781 L 11.152344 -48.925781 L 3.722656 -48.4375 L 6.882812 -0.453125 L 14.3125 -0.941406 L 12.421875 -29.660156 C 14.378906 -34.945312 21.34375 -43.882812 30.0625 -44.457031 C 31.804688 -44.570312 33.652344 -44.507812 35.976562 -44.199219 L 35.484375 -51.632812 C 34.089844 -51.816406 32.710938 -51.816406 31.148438 -51.714844 Z M 31.148438 -51.714844 "></path></g></g></g><g fill="#ffffff" fill-opacity="1"><g transform="translate(232.182908, 68.369997)"><g><path d="M 6.429688 -48.152344 L 6.742188 -16.0625 C 6.847656 -5.125 13.898438 1.335938 26.769531 1.210938 C 33.941406 1.144531 40.53125 -1.679688 46.914062 -7.441406 L 46.980469 -0.453125 L 54.429688 -0.523438 L 53.964844 -48.609375 L 46.515625 -48.539062 L 46.839844 -14.980469 C 41.382812 -9.042969 34.523438 -5.207031 27.625 -5.140625 C 18.433594 -5.050781 14.25 -9.882812 14.179688 -17.148438 L 13.878906 -48.222656 Z M 6.429688 -48.152344 "></path></g></g></g><g fill="#ffffff" fill-opacity="1"><g transform="translate(287.558792, 67.631616)"><g><path d="M 10.8125 -66.324219 L 6.882812 0.40625 L 14.320312 0.84375 L 16.289062 -32.660156 C 22.625 -38.550781 29.523438 -41.550781 36.132812 -41.160156 C 45.3125 -40.621094 49.160156 -35.605469 48.730469 -28.261719 L 46.902344 2.761719 L 54.335938 3.199219 L 56.222656 -28.835938 C 56.871094 -39.847656 50.183594 -46.691406 37.421875 -47.441406 C 30.265625 -47.863281 23.585938 -45.492188 16.734375 -40.183594 L 18.246094 -65.886719 Z M 10.8125 -66.324219 "></path></g></g></g><g fill="#ffffff" fill-opacity="1"><g transform="translate(173.426255, 151.368006)"><g><path d="M -3.320312 -68.652344 L 5.601562 -10.082031 L 6.414062 -0.976562 L 12.273438 -1.867188 L 12.972656 -9.777344 C 22.9375 -3.683594 28.582031 -2.832031 37.324219 -4.160156 C 54.429688 -6.765625 62.550781 -20.273438 60.511719 -33.664062 C 58.304688 -48.167969 46.570312 -58.367188 28.628906 -55.632812 C 21.191406 -54.5 16.089844 -52.394531 8.117188 -44.140625 L 4.210938 -69.800781 Z M 9.308594 -36.328125 C 14.859375 -44.214844 21.144531 -47.929688 28.953125 -49.121094 C 41.503906 -51.03125 51.085938 -44.976562 53.011719 -32.332031 C 54.597656 -21.917969 47.410156 -12.261719 34.859375 -10.351562 C 27.699219 -9.261719 18.960938 -12.304688 12.183594 -17.457031 Z M 9.308594 -36.328125 "></path></g></g></g><g fill="#ffffff" fill-opacity="1"><g transform="translate(233.798355, 143.077941)"><g><path d="M 3.171875 -68.570312 L 3.546875 -59.832031 L 12.285156 -60.207031 L 11.910156 -68.945312 Z M 4.652344 -49.429688 L 6.765625 -0.289062 L 14.375 -0.617188 L 12.261719 -49.757812 Z M 4.652344 -49.429688 "></path></g></g></g><g fill="#ffffff" fill-opacity="1"><g transform="translate(247.988998, 141.07087)"><g><path d="M 11.015625 -67.84375 L 7.042969 0.410156 L 14.644531 0.851562 L 15.582031 -15.203125 L 30.390625 -25.265625 L 51.074219 2.972656 L 60.746094 3.535156 L 36.464844 -29.246094 L 60.597656 -45.742188 L 48.863281 -46.425781 L 16.089844 -23.933594 L 18.621094 -67.402344 Z M 11.015625 -67.84375 "></path></g></g></g><g fill="#ffffff" fill-opacity="1"><g transform="translate(303.764768, 145.031299)"><g><path d="M 16.878906 -66.535156 L 15.492188 -57.898438 L 24.128906 -56.511719 L 25.515625 -65.148438 Z M 14.488281 -47.488281 L 6.683594 1.074219 L 14.207031 2.28125 L 22.007812 -46.28125 Z M 14.488281 -47.488281 "></path></g></g></g><g fill="#ffffff" fill-opacity="1"><g transform="translate(318.069448, 145.915238)"><g><path d="M 47.21875 -39.875 C 40.132812 -41.765625 32.953125 -40.757812 25 -36.84375 L 26.839844 -43.75 L 19.480469 -45.710938 L 6.816406 1.816406 L 14.175781 3.777344 L 23.015625 -29.390625 C 30.566406 -33.996094 38.097656 -35.59375 44.640625 -33.847656 C 53.726562 -31.425781 56.558594 -25.613281 54.621094 -18.34375 L 46.4375 12.375 L 53.796875 14.335938 L 62.25 -17.378906 C 65.152344 -28.285156 59.851562 -36.511719 47.21875 -39.875 Z M 47.21875 -39.875 "></path></g></g></g><g fill="#ffffff" fill-opacity="1"><g transform="translate(27.683135, 251.848984)"><g><path d="M -2.914062 -105.734375 L 10.339844 -1.3125 L 27.863281 -3.539062 L 26.605469 -13.449219 C 35.546875 -6.265625 46.289062 -3.25 58.785156 -4.835938 C 81.480469 -7.71875 97.355469 -26.371094 94.144531 -51.648438 C 91.136719 -75.347656 72.613281 -90.21875 47.621094 -87.046875 C 39.289062 -85.988281 30.53125 -83.710938 19.382812 -72.660156 L 14.894531 -107.996094 Z M 21.3125 -57.4375 C 28.984375 -66 36.480469 -70.160156 45.53125 -71.3125 C 61.042969 -73.28125 74.097656 -64.722656 76.121094 -48.777344 C 78.128906 -32.976562 68.058594 -21.484375 52.832031 -19.550781 C 44.070312 -18.4375 36.398438 -20.238281 25.125 -27.417969 Z M 21.3125 -57.4375 "></path></g></g></g><g fill="#ffffff" fill-opacity="1"><g transform="translate(122.681124, 240.374829)"><g><path d="M 3.085938 -105.800781 L 11.117188 -0.851562 L 29.015625 -2.21875 L 20.988281 -107.171875 Z M 3.085938 -105.800781 "></path></g></g></g><g fill="#ffffff" fill-opacity="1"><g transform="translate(154.057569, 237.110266)"><g><path d="M 45.816406 -81.746094 C 18.175781 -80.929688 2.765625 -63.234375 3.480469 -39.066406 C 4.265625 -12.4375 22.363281 1.945312 48.269531 1.179688 C 74.320312 0.410156 91.390625 -15.015625 90.601562 -41.644531 C 89.875 -66.246094 73.171875 -82.554688 45.816406 -81.746094 Z M 21.707031 -39.894531 C 21.207031 -56.828125 31.363281 -65.964844 46.125 -66.402344 C 61.324219 -66.851562 71.867188 -58.035156 72.359375 -41.394531 C 72.839844 -25.183594 63.734375 -14.632812 47.816406 -14.160156 C 31.898438 -13.691406 22.1875 -23.6875 21.707031 -39.894531 Z M 21.707031 -39.894531 "></path></g></g></g><g fill="#ffffff" fill-opacity="1"><g transform="translate(241.039882, 234.214775)"><g><path d="M 96.777344 -77.960938 L 94.316406 -78.054688 C 88.097656 -78.296875 82.925781 -75.746094 77.207031 -70.316406 C 69.738281 -75.675781 61.570312 -78.023438 50.574219 -78.449219 C 24.242188 -79.472656 10.109375 -70.027344 9.402344 -51.796875 C 9.019531 -41.957031 12.777344 -34.277344 21.414062 -29.015625 L 21.402344 -28.726562 C 13.683594 -27.722656 7.492188 -21.296875 7.234375 -14.644531 C 6.957031 -7.554688 10.992188 -3.195312 18.484375 -2.179688 L 18.476562 -1.890625 C 5.375 -0.371094 2.609375 3.722656 2.382812 9.511719 C 1.957031 20.507812 15.890625 27.277344 42.222656 28.300781 C 72.605469 29.480469 93.03125 22.160156 93.644531 6.390625 C 94.144531 -6.484375 82.472656 -11.863281 64.964844 -12.542969 L 40.515625 -13.496094 C 30.242188 -13.894531 24.917969 -14.824219 25.066406 -18.585938 C 25.148438 -20.757812 27.113281 -22.855469 30.226562 -24.617188 C 33.792969 -23.175781 39.246094 -21.804688 46.476562 -21.523438 C 71.074219 -20.566406 86.230469 -30.265625 86.945312 -48.636719 C 87.132812 -53.558594 86 -57.949219 83.828125 -61.65625 C 86.035156 -62.582031 87.5 -62.960938 90.105469 -62.859375 C 91.695312 -62.796875 93.710938 -62.429688 96.136719 -61.464844 Z M 27.042969 -50.820312 C 27.433594 -60.949219 36.3125 -65.675781 48.320312 -65.207031 C 61.632812 -64.691406 69.660156 -58.726562 69.292969 -49.324219 C 68.917969 -39.628906 59.4375 -34.347656 47.140625 -34.828125 C 33.976562 -35.339844 26.660156 -40.984375 27.042969 -50.820312 Z M 61.304688 3.398438 C 72.296875 3.824219 74 4.757812 73.855469 8.519531 C 73.648438 13.875 63.992188 16.25 44.316406 15.488281 C 25.796875 14.765625 21.976562 12.445312 22.167969 7.527344 C 22.308594 3.910156 26.582031 2.046875 32.945312 2.292969 Z M 61.304688 3.398438 "></path></g></g></g><g clip-path="url(#65642b484e)"><g clip-path="url(#3b8020281c)"><g transform="matrix(1, 0, 0, 1, 347, 21)"><g clip-path="url(#f04b1afeb5)"><g clip-path="url(#50d013ae72)"><g clip-path="url(#93e6c0ea41)"><g clip-path="url(#bb82947434)"><path fill="#ffffff" d="M 172.023438 51.542969 C 172.84375 49.5625 174.867188 48.371094 177 48.617188 C 179.125 48.863281 180.84375 50.496094 181.179688 52.609375 C 183.496094 66.332031 185.929688 98.957031 194.898438 111.113281 C 201.640625 120.234375 212.523438 126.558594 225.859375 131.875 C 228.167969 132.800781 234.355469 137.148438 233.933594 139.574219 C 233.511719 142.007812 226.492188 144.007812 224.019531 144.121094 C 203.59375 145 186.210938 148.359375 179.019531 159.078125 C 173.429688 167.40625 167.742188 179.511719 162.015625 200.421875 C 161.140625 203.609375 157.042969 212.765625 153.773438 212.324219 C 150.480469 211.882812 149.011719 201.984375 148.988281 198.679688 C 149.003906 173.339844 146.605469 156.382812 140.667969 147.644531 C 133.222656 136.691406 122.195312 129.496094 110.195312 124.609375 C 108.15625 123.796875 103.34375 121.140625 103.539062 118.96875 C 103.738281 116.785156 108.589844 114.933594 110.726562 114.5 C 129.324219 110.683594 150.003906 101.804688 158.453125 86.667969 C 162.53125 79.386719 169.660156 56.621094 172.023438 51.542969 Z M 172.023438 51.542969 " fill-opacity="1" fill-rule="evenodd"></path></g></g></g><g clip-path="url(#d7fb0563c7)"><g clip-path="url(#ad55d33a62)"><g clip-path="url(#56f76af447)"><path fill="#ffffff" d="M 73.8125 143.691406 C 74.289062 142.542969 75.460938 141.835938 76.710938 141.992188 C 77.945312 142.140625 78.949219 143.078125 79.136719 144.308594 C 80.484375 152.292969 81.894531 171.28125 87.125 178.351562 C 91.050781 183.667969 97.378906 187.347656 105.148438 190.429688 C 106.496094 190.972656 110.085938 193.5 109.839844 194.910156 C 109.589844 196.335938 105.511719 197.488281 104.074219 197.566406 C 92.179688 198.078125 82.078125 200.027344 77.890625 206.261719 C 74.648438 211.097656 71.328125 218.15625 67.996094 230.316406 C 67.488281 232.171875 65.113281 237.496094 63.199219 237.242188 C 61.285156 236.988281 60.429688 231.238281 60.425781 229.304688 C 60.433594 214.566406 59.03125 204.691406 55.582031 199.621094 C 51.253906 193.25 44.835938 189.074219 37.855469 186.21875 C 36.675781 185.738281 33.867188 184.191406 33.980469 182.929688 C 34.09375 181.671875 36.921875 180.582031 38.160156 180.332031 C 48.980469 178.101562 61.015625 172.9375 65.921875 164.132812 C 68.292969 159.910156 72.449219 146.660156 73.8125 143.691406 Z M 73.8125 143.691406 " fill-opacity="1" fill-rule="evenodd"></path></g></g></g><g clip-path="url(#a060a18bd9)"><g clip-path="url(#17e9ed674a)"><g clip-path="url(#f7f71cf2dc)"><path fill="#ffffff" d="M 62.253906 6.589844 C 62.664062 5.617188 63.65625 5.023438 64.707031 5.140625 C 65.757812 5.257812 66.597656 6.058594 66.777344 7.101562 C 67.925781 13.894531 69.117188 29.992188 73.554688 36.007812 C 76.890625 40.527344 82.269531 43.640625 88.851562 46.269531 C 89.984375 46.722656 93.035156 48.871094 92.835938 50.078125 C 92.636719 51.28125 89.148438 52.257812 87.941406 52.320312 C 77.839844 52.746094 69.261719 54.414062 65.703125 59.710938 C 62.949219 63.8125 60.132812 69.804688 57.3125 80.144531 C 56.867188 81.726562 54.855469 86.246094 53.234375 86.042969 C 51.621094 85.820312 50.894531 80.941406 50.878906 79.292969 C 50.894531 66.769531 49.703125 58.386719 46.773438 54.082031 C 43.082031 48.671875 37.640625 45.109375 31.722656 42.695312 C 30.714844 42.28125 28.335938 40.984375 28.429688 39.90625 C 28.539062 38.835938 30.925781 37.90625 31.992188 37.707031 C 41.1875 35.808594 51.394531 31.445312 55.578125 23.953125 C 57.570312 20.359375 61.089844 9.097656 62.253906 6.589844 Z M 62.253906 6.589844 " fill-opacity="1" fill-rule="evenodd"></path></g></g></g></g></g></g></g></g></g></svg></g></g></svg>